# xmcd
#
# Track frame offsets: 
#        150
#        9200
#        27015
#        43245
#        59298
#        68073
#        91705
#        107898
#        122618
#        134845
#        145953
#        163883
#        179670
#        194830
#        209103
#        223520
#        235243
#        247320
#
# Disc length: 3470 seconds
#
# Revision: 3
# Processed by: cddbd v1.5.2PL0 Copyright (c) Steve Scherf et al.
# Submitted via: ExactAudioCopy v0.99pb5
#
DISCID=1c0d8c12
DTITLE=Al Jarreau - Ain't No Sunshine
DYEAR=2000
DGENRE=Blues
TTITLE0=Ain't No Sunshine
TTITLE1=Lean on Me
TTITLE2=Use Me
TTITLE3=Kissing My Love
TTITLE4=Grandma's Hands
TTITLE5=You
TTITLE6=Lonely Town Lonely Street
TTITLE7=The Same Love that Made Me Laugh
TTITLE8=Livin' for You
TTITLE9=Call Me (Come Back Home)
TTITLE10=Here I Am (Come and Take Me)
TTITLE11=Let's Get Married
TTITLE12=Let's Stay Together
TTITLE13=You Ought to Be with Me
TTITLE14=Love and Happines
TTITLE15=Tired of Being Alone
TTITLE16=Look What You Done for Me
TTITLE17=I'm Still in Love with You
EXTD=YEAR: 2000
EXTT0=
EXTT1=
EXTT2=
EXTT3=
EXTT4=
EXTT5=
EXTT6=
EXTT7=
EXTT8=
EXTT9=
EXTT10=
EXTT11=
EXTT12=
EXTT13=
EXTT14=
EXTT15=
EXTT16=
EXTT17=
PLAYORDER=
